<svg width="316" height="315" xmlns="http://www.w3.org/2000/svg" xmlns:xlink="http://www.w3.org/1999/xlink" overflow="hidden"><defs><clipPath id="clip0"><rect x="39" y="406" width="316" height="315"/></clipPath><clipPath id="clip1"><rect x="40" y="406" width="314" height="314"/></clipPath><clipPath id="clip2"><rect x="40" y="406" width="314" height="314"/></clipPath><clipPath id="clip3"><rect x="40" y="406" width="314" height="314"/></clipPath></defs><g clip-path="url(#clip0)" transform="translate(-39 -406)"><path d="M116.167 626.715C102.056 588.136 122.611 630.172 102.5 592.931L145.167 511.982 158.167 519.006 190.833 469.5 226.5 533.055 164.5 660.5 134.833 660.5 116.167 626.715Z" stroke="#402438" stroke-width="1.33333" stroke-miterlimit="8" fill="#7B456C" fill-rule="evenodd"/><path d="M52.5001 660.5 70.3125 623.811C75.1454 623.791 81.7298 616.52 86.5627 616.5L99.824 624.75 113.437 620.061 132.5 660.5 52.5001 660.5Z" stroke="#5C1C30" stroke-width="1.33333" stroke-miterlimit="8" fill="#5C1C30" fill-rule="evenodd"/><path d="M74.5001 616.091 92.5001 582.5 110.5 616.091 99.1274 623.5C93.9979 621.84 91.3912 618.936 86.2616 617.276L74.5001 616.091Z" stroke="#FFAFBA" stroke-width="1.33333" stroke-miterlimit="8" fill="#FFAFBA" fill-rule="evenodd"/><path d="M216.5 551.51 253.35 486.5 283.5 534.761 258.04 554.5 239.95 544.116 227.22 553.495 216.5 551.51Z" stroke="#DAC4E4" stroke-width="1.33333" stroke-miterlimit="8" fill="#DAC4E4" fill-rule="evenodd"/><path d="M164.5 660.5 216.852 550.585C222.386 546.107 217.537 555.504 228.842 553.286 233.207 552.732 231.491 547.668 240.798 545 245.364 542.531 252.91 555.326 260.225 554.039 267.54 552.752 277.006 528.907 284.685 537.277 292.365 545.647 322.999 608.744 327.723 623.841 332.446 638.938 314.148 625.39 313.028 627.859 311.907 630.328 303.687 614.468 299.578 619.071 279.353 613.453 283.056 634.889 274.92 638.153 266.784 641.417 237.477 628.445 235.069 631.876 232.662 635.308 230.503 637.944 227.597 641.166 224.691 644.389 218.946 644.598 217.883 648.448 217.833 652.465 217.783 656.483 217.733 660.5L164.5 660.5Z" stroke="#281227" stroke-width="1.33333" stroke-miterlimit="8" fill="#281227" fill-rule="evenodd"/><path d="M292.745 618.501C300.078 618.626 308.801 626.654 314.014 628.536 319.227 630.417 320.479 628.494 324.023 629.79 327.568 631.086 330.654 635.247 335.033 638.821 339.412 642.396 350.255 648.521 350.297 651.239 350.339 653.957 352.75 656.779 339.787 658.389 333.306 659.194 324.037 658.274 314.147 657.174L313.014 656.984 305.257 659.5 272.727 659.5 267.473 657.881 262.403 658.04C247.028 659.549 239.103 659.418 232.191 659.392 225.279 659.367 223.503 659.497 220.931 657.887 218.36 656.277 215.635 652.368 216.761 649.734 217.887 647.1 224.198 645.072 227.687 642.083 231.176 639.093 232.442 631.923 237.696 631.797 244.605 627.971 251.201 639.198 256.713 638.069 262.225 636.94 268.266 636.563 274.271 633.302 280.276 630.041 285.413 618.376 292.745 618.501Z" stroke="#3E5A24" stroke-width="1.33333" stroke-miterlimit="8" fill="#3E5A24" fill-rule="evenodd"/><g clip-path="url(#clip1)"><g clip-path="url(#clip2)"><g clip-path="url(#clip3)"><path d="M354 648.798C353.632 640.335 345.782 633.466 336.951 634.938 333.394 628.192 348.91 659.04 285.312 531.907L285.312 531.907 263.541 488.302C259.187 479.655 246.86 479.655 242.567 488.302 240.604 492.227 227.848 517.679 225.211 523.014L199.146 470.824 199.146 470.824C195.221 462.974 183.998 462.974 180.073 470.824L158.67 513.57C157.75 515.348 155.174 515.409 154.254 513.57 150.329 505.72 139.106 505.72 135.181 513.57L100.592 582.748 99.6723 580.846C96.7898 575.02 88.5719 575.082 85.6895 580.846L85.6895 580.846C85.6895 580.846 85.6895 580.846 85.6895 580.846L48.6473 654.87 44.5996 654.87C42.0852 654.87 40 656.955 40 659.469 40 661.984 42.0852 664.069 44.5996 664.069 49.5672 664.069 271.33 664.069 276.236 664.069 278.75 664.069 280.836 661.984 280.836 659.469 280.836 656.955 278.75 654.87 276.236 654.87L225.272 654.87C223.187 654.87 221.593 653.214 221.593 651.129 221.593 649.105 223.494 647.265 225.702 647.51 229.197 647.939 232.325 645.609 233 642.175 233.797 638.066 237.415 635.122 241.586 635.122 244.652 635.122 247.596 636.778 249.19 639.537 250.723 642.175 253.79 643.524 256.672 642.911 257.347 642.788 258.88 642.113 261.027 642.788 266.423 644.505 267.405 639.66 272.618 640.703 276.236 641.439 279.732 638.986 280.161 635.367 281.081 628.253 287.214 622.918 294.389 622.918 299.541 622.918 304.324 625.739 306.9 630.216 308.372 632.853 311.193 634.325 314.075 634.202 314.75 634.202 315.425 634.079 316.038 633.834 321.496 632.055 327.138 634.999 329.285 640.028 330.695 643.401 334.375 645.18 337.871 644.137 341.305 643.095 344.739 645.732 344.862 649.166 344.985 652.294 342.47 654.87 339.404 654.87L297.823 654.87C295.309 654.87 293.224 656.955 293.224 659.469 293.224 661.984 295.309 664.069 297.823 664.069L339.404 664.069C347.683 664.069 354.307 657.139 354 648.798ZM250.785 492.35C251.705 490.51 254.403 490.51 255.323 492.35 257.102 495.907 270.532 522.707 275.623 533.011L259.432 549.569C259.064 549.998 258.389 549.998 257.96 549.63L248.148 541.167C243.732 537.365 237.109 537.978 233.49 542.455L228.216 548.956C227.848 549.446 227.112 549.508 226.683 549.078L223.8 546.38C241.954 509.951 241.463 510.932 250.785 492.35ZM92.6809 587.409 105.253 612.492 98.5684 619.299 91.209 612.982C87.8973 610.161 83.2977 610.223 80.1086 612.492L92.6809 587.409ZM58.9504 654.87 72.3812 628.008C78.9434 629.664 81.9484 624.451 85.3828 620.158L92.7422 626.475C96.2992 629.541 101.696 629.296 104.946 625.923L109.546 621.2 126.35 654.808 58.9504 654.808 58.9504 654.87ZM159.222 654.87 136.653 654.87 105.744 592.989 143.399 517.617C143.951 516.513 145.484 516.513 146.036 517.617 150.329 526.203 162.595 526.203 166.888 517.617L188.291 474.871C188.843 473.768 190.377 473.768 190.929 474.871L190.929 474.871 220.121 533.195C217.422 538.469 164.251 644.812 159.222 654.87ZM318.736 624.144C317.264 624.205 315.731 624.389 314.321 624.757 310.028 617.889 302.484 613.657 294.389 613.657 283.595 613.657 274.273 621.078 271.636 631.32 268.631 631.258 265.565 632.055 262.866 633.65 260.72 633.098 258.512 633.037 256.304 633.466 252.993 628.744 247.473 625.861 241.647 625.861 233.797 625.861 226.928 630.952 224.598 638.311 217.974 638.74 212.577 644.198 212.516 651.006L212.516 651.006C212.516 652.294 212.7 653.704 213.068 654.87L169.648 654.87 219.446 555.027 220.366 555.886C220.366 555.886 220.366 555.886 220.366 555.886 224.72 559.934 231.589 559.443 235.33 554.843L240.604 548.343C240.972 547.852 241.647 547.791 242.137 548.22L251.95 556.683C256.059 560.179 262.192 559.934 265.994 556.07L279.977 541.78 321.251 624.267C320.392 624.144 319.595 624.144 318.736 624.144Z"/></g></g></g></g></svg>